<svg width="8" height="8" viewBox="0 0 8 8" fill="none" xmlns="http://www.w3.org/2000/svg">
<g clip-path="url(#clip0_9_1175)">
<path d="M3.66667 1.33331H1.33334C1.15653 1.33331 0.986958 1.40355 0.861934 1.52858C0.73691 1.6536 0.666672 1.82317 0.666672 1.99998V6.66665C0.666672 6.84346 0.73691 7.01303 0.861934 7.13805C0.986958 7.26308 1.15653 7.33331 1.33334 7.33331H6.00001C6.17682 7.33331 6.34639 7.26308 6.47141 7.13805C6.59643 7.01303 6.66667 6.84346 6.66667 6.66665V4.33331" stroke="white" stroke-width="0.666667" stroke-linecap="round" stroke-linejoin="round"/>
<path d="M6.16667 0.833327C6.29928 0.700719 6.47914 0.626221 6.66667 0.626221C6.85421 0.626221 7.03406 0.700719 7.16667 0.833327C7.29928 0.965936 7.37378 1.14579 7.37378 1.33333C7.37378 1.52086 7.29928 1.70072 7.16667 1.83333L4.00001 4.99999L2.66667 5.33333L3.00001 3.99999L6.16667 0.833327Z" stroke="white" stroke-width="0.666667" stroke-linecap="round" stroke-linejoin="round"/>
</g>
<defs>
<clipPath id="clip0_9_1175">
<rect width="8" height="8" fill="white"/>
</clipPath>
</defs>
</svg>
