<svg width="10" height="10" viewBox="0 0 10 10" fill="none" xmlns="http://www.w3.org/2000/svg">
<g clip-path="url(#clip0_13_1445)">
<path d="M4.58337 1.66666H1.66671C1.44569 1.66666 1.23373 1.75445 1.07745 1.91073C0.921171 2.06701 0.833374 2.27898 0.833374 2.49999V8.33332C0.833374 8.55434 0.921171 8.7663 1.07745 8.92258C1.23373 9.07886 1.44569 9.16666 1.66671 9.16666H7.50004C7.72105 9.16666 7.93302 9.07886 8.0893 8.92258C8.24558 8.7663 8.33337 8.55434 8.33337 8.33332V5.41666" stroke="#282828" stroke-width="0.833333" stroke-linecap="round" stroke-linejoin="round"/>
<path d="M7.70837 1.04166C7.87413 0.875899 8.09895 0.782776 8.33337 0.782776C8.56779 0.782776 8.79261 0.875899 8.95837 1.04166C9.12413 1.20742 9.21726 1.43224 9.21726 1.66666C9.21726 1.90108 9.12413 2.1259 8.95837 2.29166L5.00004 6.24999L3.33337 6.66666L3.75004 4.99999L7.70837 1.04166Z" stroke="#282828" stroke-width="0.833333" stroke-linecap="round" stroke-linejoin="round"/>
</g>
<defs>
<clipPath id="clip0_13_1445">
<rect width="10" height="10" fill="white"/>
</clipPath>
</defs>
</svg>
