<svg width="15" height="11" viewBox="0 0 15 11" fill="none" xmlns="http://www.w3.org/2000/svg">
<path d="M7.3636 6.77303C8.06665 6.77303 8.63659 6.2031 8.63659 5.50004C8.63659 4.79699 8.06665 4.22705 7.3636 4.22705C6.66055 4.22705 6.09061 4.79699 6.09061 5.50004C6.09061 6.2031 6.66055 6.77303 7.3636 6.77303Z" stroke="#1ECEB2" stroke-width="1.27299" stroke-linecap="round" stroke-linejoin="round"/>
<path d="M10.0623 2.80128C10.4174 3.15596 10.6991 3.57715 10.8913 4.04077C11.0835 4.50438 11.1824 5.00133 11.1824 5.50321C11.1824 6.00508 11.0835 6.50203 10.8913 6.96564C10.6991 7.42926 10.4174 7.85045 10.0623 8.20513M4.66485 8.19876C4.30978 7.84408 4.0281 7.4229 3.83591 6.95928C3.64372 6.49566 3.5448 5.99871 3.5448 5.49684C3.5448 4.99497 3.64372 4.49802 3.83591 4.0344C4.0281 3.57079 4.30978 3.1496 4.66485 2.79492M11.8636 1C13.0569 2.19361 13.7272 3.81227 13.7272 5.50002C13.7272 7.18778 13.0569 8.80644 11.8636 10M2.86357 10C1.67033 8.80644 1 7.18778 1 5.50002C1 3.81227 1.67033 2.19361 2.86357 1" stroke="#1ECEB2" stroke-width="1.27299" stroke-linecap="round" stroke-linejoin="round"/>
</svg>
